# xmcd CD database file
#
# Track frame offsets:
#	150
#	42579
#	69827
#	95797
#	123594
#	150208
#	189469
#	209655
#
# Disc length: 3139 seconds
#
# Revision: 0
# Processed by: cddbd v1.5.2PL0 Copyright (c) Steve Scherf et al.
# Submitted via: CDex 1.77
#
DISCID=6e0c4108
DTITLE=Gabriele Boggio Ferraris 4tet - Say the Truth
DYEAR=2010
DGENRE=Jazz
TTITLE0=Francesca
TTITLE1=La Vigna
TTITLE2=Say the Truth
TTITLE3=Ersilia
TTITLE4=Monko
TTITLE5=Moovin' Funk
TTITLE6=Milano
TTITLE7=The Sound of Water
EXTD=YEAR: 2010
EXTT0=
EXTT1=
EXTT2=
EXTT3=
EXTT4=
EXTT5=
EXTT6=
EXTT7=
PLAYORDER=
